<svg xmlns="http://www.w3.org/2000/svg" viewBox="0 0 64 64" role="img" aria-label="Amorzim Pet">
  <defs>
    <linearGradient id="bg" x1="0%" y1="0%" x2="100%" y2="100%">
      <stop offset="0%" stop-color="#74ddd5" />
      <stop offset="100%" stop-color="#126c67" />
    </linearGradient>
  </defs>
  <rect width="64" height="64" rx="18" fill="url(#bg)" />
  <circle cx="21" cy="21" r="6" fill="#ffffff" />
  <circle cx="43" cy="21" r="6" fill="#ffffff" />
  <circle cx="17" cy="33" r="5" fill="#ffffff" />
  <circle cx="47" cy="33" r="5" fill="#ffffff" />
  <path d="M32 26c-7.2 0-13 5.9-13 13.1C19 46.7 24.5 52 32 52s13-5.3 13-12.9C45 31.9 39.2 26 32 26Z" fill="#ffffff" />
  <path d="M27.5 39.5c1.4 1.5 3 2.2 4.5 2.2s3.1-.7 4.5-2.2" fill="none" stroke="#126c67" stroke-linecap="round" stroke-width="2.5" />
  <circle cx="27.5" cy="35.5" r="1.8" fill="#126c67" />
  <circle cx="36.5" cy="35.5" r="1.8" fill="#126c67" />
</svg>
